<?xml version="1.0" encoding="UTF-8" standalone="no"?>
<svg
   xmlns:dc="http://purl.org/dc/elements/1.1/"
   xmlns:cc="http://creativecommons.org/ns#"
   xmlns:rdf="http://www.w3.org/1999/02/22-rdf-syntax-ns#"
   xmlns:svg="http://www.w3.org/2000/svg"
   xmlns="http://www.w3.org/2000/svg"
   xmlns:sodipodi="http://sodipodi.sourceforge.net/DTD/sodipodi-0.dtd"
   xmlns:inkscape="http://www.inkscape.org/namespaces/inkscape"
   role="img"
   viewBox="0 0 24 24"
   version="1.1"
   id="svg6"
   sodipodi:docname="css3.svg"
   inkscape:version="1.0.2 (e86c870879, 2021-01-15, custom)">
  <metadata
     id="metadata12">
    <rdf:RDF>
      <cc:Work
         rdf:about="">
        <dc:format>image/svg+xml</dc:format>
        <dc:type
           rdf:resource="http://purl.org/dc/dcmitype/StillImage" />
      </cc:Work>
    </rdf:RDF>
  </metadata>
  <defs
     id="defs10" />
  <sodipodi:namedview
     pagecolor="#ffffff"
     bordercolor="#666666"
     borderopacity="1"
     objecttolerance="10"
     gridtolerance="10"
     guidetolerance="10"
     inkscape:pageopacity="0"
     inkscape:pageshadow="2"
     inkscape:window-width="1920"
     inkscape:window-height="1001"
     id="namedview8"
     showgrid="false"
     inkscape:zoom="30.625"
     inkscape:cx="12"
     inkscape:cy="11.934694"
     inkscape:window-x="-9"
     inkscape:window-y="-9"
     inkscape:window-maximized="1"
     inkscape:current-layer="svg6" />
  <title
     id="title2">CSS3 icon</title>
  <path
     d="M1.5 0h21l-1.91 21.563L11.977 24l-8.565-2.438L1.5 0zm17.09 4.413L5.41 4.41l.213 2.622 10.125.002-.255 2.716h-6.64l.24 2.573h6.182l-.366 3.523-2.91.804-2.956-.81-.188-2.11h-2.61l.29 3.855L12 19.288l5.373-1.53L18.59 4.414z"
     id="path4" />
  <path
     style="fill:#1572b6;stroke:#000000;stroke-width:0.123413;fill-opacity:1"
     d="M 11.461224,23.836356 C 11.227755,23.767853 9.3246126,23.224632 7.2320189,22.629197 L 3.4273033,21.546589 2.4858998,10.91207 C 1.9681279,5.0630844 1.53662,0.21510204 1.5269935,0.13877551 L 1.5094907,0 H 11.999768 22.490046 l -0.0188,0.15510204 c -0.01034,0.0853061 -0.44054,4.93061226 -0.956004,10.76734696 -0.515464,5.836735 -0.9399,10.6159 -0.943192,10.620367 -0.01796,0.02438 -8.556359,2.424005 -8.615563,2.42131 -0.03893,-0.0018 -0.261796,-0.05927 -0.495266,-0.12777 z m 3.223234,-5.292568 c 1.459874,-0.414794 2.66604,-0.76521 2.680367,-0.778703 0.02161,-0.02035 1.229245,-13.0554305 1.230643,-13.2834523 l 4.5e-4,-0.073469 H 12 5.4040816 v 0.075424 c 0,0.041483 0.044082,0.6099915 0.097959,1.2633512 C 5.5559184,6.4002984 5.6,6.9614596 5.6,6.9939634 c 0,0.056775 0.1991582,0.059098 5.065793,0.059098 h 5.065793 L 15.713916,7.22449 c -0.0097,0.094286 -0.06618,0.6967347 -0.125468,1.3387755 L 15.480649,9.7306122 H 12.152378 8.8241084 l 0.016653,0.1061225 c 0.00916,0.058367 0.065805,0.6461223 0.1258785,1.3061223 l 0.1092255,1.2 h 3.0953426 3.095342 l -0.01551,0.07347 c -0.0085,0.04041 -0.09178,0.822857 -0.184997,1.738775 -0.09322,0.915918 -0.17148,1.668232 -0.173923,1.671808 -0.0024,0.0036 -0.654388,0.185992 -1.448768,0.405367 L 11.999019,16.631141 10.53252,16.229095 9.0660206,15.827048 9.0472663,15.676789 c -0.010315,-0.08264 -0.047996,-0.495565 -0.083735,-0.917605 -0.035739,-0.422041 -0.073361,-0.829796 -0.083604,-0.906123 L 8.8613045,13.714286 H 7.5397316 6.2181587 l 0.018277,0.155102 c 0.010052,0.08531 0.077723,0.955735 0.1503785,1.934287 0.072656,0.978553 0.137469,1.784554 0.1440294,1.791114 0.020765,0.02077 5.3849034,1.695384 5.4434104,1.699366 0.03074,0.0021 1.250329,-0.335573 2.710204,-0.750367 z"
     id="path837" />
</svg>
