<?xml version="1.0" encoding="UTF-8" standalone="no"?>
<svg
   xmlns:dc="http://purl.org/dc/elements/1.1/"
   xmlns:cc="http://creativecommons.org/ns#"
   xmlns:rdf="http://www.w3.org/1999/02/22-rdf-syntax-ns#"
   xmlns:svg="http://www.w3.org/2000/svg"
   xmlns="http://www.w3.org/2000/svg"
   xmlns:sodipodi="http://sodipodi.sourceforge.net/DTD/sodipodi-0.dtd"
   xmlns:inkscape="http://www.inkscape.org/namespaces/inkscape"
   role="img"
   viewBox="0 0 24 24"
   version="1.1"
   id="svg6"
   sodipodi:docname="facebook.svg"
   inkscape:version="1.0.2 (e86c870879, 2021-01-15, custom)">
  <metadata
     id="metadata12">
    <rdf:RDF>
      <cc:Work
         rdf:about="">
        <dc:format>image/svg+xml</dc:format>
        <dc:type
           rdf:resource="http://purl.org/dc/dcmitype/StillImage" />
      </cc:Work>
    </rdf:RDF>
  </metadata>
  <defs
     id="defs10" />
  <sodipodi:namedview
     pagecolor="#ffffff"
     bordercolor="#666666"
     borderopacity="1"
     objecttolerance="10"
     gridtolerance="10"
     guidetolerance="10"
     inkscape:pageopacity="0"
     inkscape:pageshadow="2"
     inkscape:window-width="1920"
     inkscape:window-height="1001"
     id="namedview8"
     showgrid="false"
     inkscape:zoom="30.625"
     inkscape:cx="12"
     inkscape:cy="11.934694"
     inkscape:window-x="-9"
     inkscape:window-y="-9"
     inkscape:window-maximized="1"
     inkscape:current-layer="svg6" />
  <title
     id="title2">Facebook icon</title>
  <path
     d="M24 12.073c0-6.627-5.373-12-12-12s-12 5.373-12 12c0 5.99 4.388 10.954 10.125 11.854v-8.385H7.078v-3.47h3.047V9.43c0-3.007 1.792-4.669 4.533-4.669 1.312 0 2.686.235 2.686.235v2.953H15.83c-1.491 0-1.956.925-1.956 1.874v2.25h3.328l-.532 3.47h-2.796v8.385C19.612 23.027 24 18.062 24 12.073z"
     id="path4" />
  <path
     style="fill:#1877f2;stroke:#000000;stroke-width:0.123413;fill-opacity:1"
     d="M 9.6261913,23.819792 C 7.184066,23.30902 5.0246446,22.113926 3.330449,20.335523 -0.52835445,16.284923 -1.0756967,10.107512 2.0132525,5.4693878 2.4108774,4.8723455 2.775897,4.4061388 3.2185704,3.9299438 4.9736304,2.0419811 7.2599076,0.77654798 9.7795918,0.29847941 10.586992,0.14528859 10.960724,0.11428571 12,0.11428571 c 1.039276,0 1.413008,0.0310029 2.220408,0.1841937 5.146804,0.97652139 9.069855,5.18827719 9.682818,10.39539859 0.119963,1.019077 0.09484,2.19897 -0.0691,3.24608 -0.635854,4.061086 -3.33805,7.523907 -7.150503,9.163252 -0.701716,0.301735 -1.974594,0.677683 -2.650966,0.782969 l -0.138775,0.0216 v -4.182462 -4.182462 h 1.396964 1.396964 l 0.255191,-1.673469 c 0.140355,-0.920408 0.262702,-1.706531 0.271882,-1.746939 l 0.01669,-0.07347 H 15.562724 13.893878 L 13.894446,10.8 c 4.41e-4,-0.9704356 0.01123,-1.2993172 0.04838,-1.4746919 0.133305,-0.6292474 0.508526,-1.0497522 1.118594,-1.2535935 0.246251,-0.08228 0.279544,-0.084822 1.273271,-0.097228 l 1.020408,-0.012739 v -1.493361 -1.493361 l -0.30204,-0.040921 c -1.684515,-0.2282201 -2.806472,-0.2432918 -3.674621,-0.049362 -1.737424,0.388111 -2.832514,1.5666769 -3.17973,3.4221136 -0.06154,0.3288663 -0.06927,0.5194524 -0.08319,2.0523288 l -0.01535,1.689796 H 8.5847798 7.0693878 v 1.746938 1.746939 h 1.5183673 1.5183669 v 4.179592 c 0,3.959895 -0.003,4.17944 -0.05714,4.176705 -0.03143,-0.0016 -0.2216837,-0.0373 -0.4227887,-0.07936 z"
     id="path837" />
</svg>
