<?xml version="1.0" encoding="UTF-8" standalone="no"?>
<svg
   xmlns:dc="http://purl.org/dc/elements/1.1/"
   xmlns:cc="http://creativecommons.org/ns#"
   xmlns:rdf="http://www.w3.org/1999/02/22-rdf-syntax-ns#"
   xmlns:svg="http://www.w3.org/2000/svg"
   xmlns="http://www.w3.org/2000/svg"
   xmlns:sodipodi="http://sodipodi.sourceforge.net/DTD/sodipodi-0.dtd"
   xmlns:inkscape="http://www.inkscape.org/namespaces/inkscape"
   role="img"
   viewBox="0 0 24 24"
   version="1.1"
   id="svg6"
   sodipodi:docname="freecodecamp.svg"
   inkscape:version="1.0.2 (e86c870879, 2021-01-15, custom)">
  <metadata
     id="metadata12">
    <rdf:RDF>
      <cc:Work
         rdf:about="">
        <dc:format>image/svg+xml</dc:format>
        <dc:type
           rdf:resource="http://purl.org/dc/dcmitype/StillImage" />
      </cc:Work>
    </rdf:RDF>
  </metadata>
  <defs
     id="defs10" />
  <sodipodi:namedview
     pagecolor="#ffffff"
     bordercolor="#666666"
     borderopacity="1"
     objecttolerance="10"
     gridtolerance="10"
     guidetolerance="10"
     inkscape:pageopacity="0"
     inkscape:pageshadow="2"
     inkscape:window-width="1920"
     inkscape:window-height="1001"
     id="namedview8"
     showgrid="false"
     inkscape:zoom="30.625"
     inkscape:cx="12"
     inkscape:cy="11.934694"
     inkscape:window-x="-9"
     inkscape:window-y="-9"
     inkscape:window-maximized="1"
     inkscape:current-layer="svg6" />
  <title
     id="title2">freeCodeCamp icon</title>
  <path
     d="M19.885 3.906a.621.621 0 00-.354.12c-.08.08-.161.196-.161.313 0 .2.236.474.673.923 1.822 1.754 2.738 3.903 2.732 6.494-.007 2.867-.97 5.17-2.844 6.954-.394.353-.556.63-.557.867 0 .116.08.237.16.353.076.08.237.162.353.162.434 0 1.04-.512 1.833-1.509 1.542-1.89 2.24-3.978 2.279-6.824.036-2.847-.857-4.777-2.603-6.77-.63-.712-1.153-1.082-1.511-1.083zm-15.769.002c-.358 0-.882.37-1.51 1.083C.858 6.984-.035 8.914.001 11.761c.04 2.846.737 4.933 2.28 6.824.791.997 1.398 1.51 1.832 1.509a.573.573 0 00.352-.162c.08-.116.16-.237.16-.353 0-.237-.162-.514-.556-.866-1.873-1.785-2.837-4.087-2.844-6.955-.006-2.591.91-4.74 2.732-6.494.437-.449.674-.722.673-.923 0-.117-.08-.233-.161-.313a.621.621 0 00-.354-.12zm7.056.895s.655 2.081-2.649 6.727c-3.156 4.433 1.045 7.15 1.432 7.386-.281-.18-2.001-1.5.402-5.423.466-.77 1.076-1.47 1.834-3.041 0 0 .67.946.32 2.998-.523 3.101 2.271 2.214 2.314 2.257.976 1.15-.808 3.17-.917 3.233-.108.061 5.096-3.13 1.399-7.935-.253.253-.582 1.442-1.267 1.266-.684-.174 2.125-3.494-2.868-7.468zM9.955 18.916c.023.016.038.024.038.024l-.038-.024z"
     id="path4" />
  <path
     style="fill:#0a0a23;stroke:#000000;stroke-width:0.123413;fill-opacity:1"
     d="M 3.8661874,20.021331 C 3.5095416,19.878256 3.0667832,19.492206 2.5406747,18.86559 0.93616627,16.954557 0.23052678,15.167639 0.0487136,12.555102 -0.10424538,10.357181 0.27217718,8.5340718 1.2093834,6.9336869 1.6704074,6.1464364 2.3187095,5.302124 2.9369332,4.6838223 3.6210491,3.99962 4.0443615,3.8039585 4.3969221,4.0089924 4.5202331,4.0807047 4.6321642,4.2915726 4.6047974,4.4006105 4.5706047,4.5368439 4.3547197,4.81935 4.0388353,5.1412248 3.5239654,5.6658588 3.2142352,6.0162532 2.9200057,6.4069446 2.055941,7.5542893 1.5302329,8.8344738 1.2970009,10.359224 c -0.044937,0.293778 -0.055839,0.583014 -0.054459,1.444858 0.00152,0.950588 0.010395,1.133337 0.075308,1.55102 0.2282956,1.468985 0.6589244,2.641648 1.3669686,3.722449 0.3706382,0.565764 0.626023,0.878435 1.1868364,1.453061 0.5362162,0.549423 0.654928,0.703435 0.7154511,0.9282 0.032424,0.120415 0.02828,0.155434 -0.033497,0.283047 -0.138142,0.285364 -0.4036564,0.393309 -0.6874216,0.279472 z"
     id="path837" />
  <path
     style="fill:#0a0a23;fill-opacity:1;stroke:#000000;stroke-width:0.123413"
     d="m 14.246134,18.587755 c 0.05309,-0.06735 0.177448,-0.247347 0.276362,-0.4 0.617885,-0.95358 0.768539,-1.787148 0.423538,-2.34342 l -0.08889,-0.143326 -0.163265,0.0194 c -0.0898,0.01067 -0.332245,0.02804 -0.538776,0.03861 -0.589968,0.03017 -0.996167,-0.09537 -1.291391,-0.399134 -0.378071,-0.389006 -0.478841,-1.003729 -0.323287,-1.972125 0.117979,-0.734475 0.09558,-1.665072 -0.05417,-2.250602 -0.06388,-0.24976 -0.249092,-0.688173 -0.29073,-0.688173 -0.01286,0 -0.11547,0.18 -0.22802,0.4 -0.270419,0.528584 -0.714226,1.265193 -1.126308,1.869387 -0.9783212,1.434414 -1.5211739,2.603193 -1.702116,3.664709 -0.074694,0.4382 -0.049408,1.14337 0.052418,1.461822 0.083965,0.262592 0.2025449,0.508342 0.319056,0.661224 0.044481,0.05837 0.070264,0.106123 0.057295,0.106123 -0.052975,0 -0.5568446,-0.449166 -0.8281562,-0.738247 C 7.9407163,17.022699 7.5089544,16.133487 7.392632,15.099738 7.3040539,14.312551 7.5151506,13.354852 7.9737747,12.46322 8.0586321,12.298245 8.3812292,11.786583 8.690657,11.326193 9.6968559,9.8290968 10.271731,8.7938103 10.691963,7.7220622 11.0601,6.7831759 11.22388,6.0503651 11.22922,5.3181734 l 0.0032,-0.4450919 0.09805,0.081128 c 1.236961,1.0234499 2.144499,2.1875227 2.540042,3.2580355 0.388542,1.051568 0.425823,1.944856 0.136956,3.281633 -0.13265,0.613857 -0.119082,0.767441 0.07094,0.80309 0.295455,0.05543 0.619029,-0.19819 0.899659,-0.705151 0.0845,-0.152642 0.191799,-0.341858 0.238452,-0.420481 l 0.08482,-0.142948 0.141283,0.194164 c 0.504969,0.693976 0.866839,1.442541 1.050737,2.173563 0.116015,0.461175 0.14425,1.237998 0.06272,1.725585 -0.169784,1.015384 -0.690831,1.968625 -1.56599,2.864938 -0.339181,0.34738 -0.763908,0.723566 -0.81693,0.723566 -0.01298,0 0.01983,-0.0551 0.07292,-0.122449 z"
     id="path839" />
  <path
     style="fill:#0a0a23;fill-opacity:1;stroke:#000000;stroke-width:0.123413"
     d="m 19.697879,20.014062 c -0.164459,-0.08682 -0.301558,-0.297441 -0.297378,-0.456854 0.0061,-0.232226 0.132934,-0.41454 0.679842,-0.977133 0.288323,-0.296592 0.628371,-0.671504 0.755661,-0.833136 1.114434,-1.415105 1.730043,-3.022349 1.909488,-4.985332 0.04974,-0.544067 0.0214,-1.983785 -0.04797,-2.436825 C 22.437125,8.6240206 21.781063,7.1860297 20.683285,5.909867 20.567886,5.7757166 20.281968,5.4673838 20.04791,5.2246829 19.386787,4.5391453 19.296332,4.3652727 19.475288,4.1239947 c 0.08096,-0.1091545 0.273253,-0.2056274 0.409862,-0.2056274 0.277844,0 0.75614,0.317938 1.259557,0.8372668 0.976654,1.0075242 1.892215,2.4285011 2.311314,3.587223 0.434023,1.1999873 0.60398,2.6551649 0.493874,4.2285719 -0.182123,2.602515 -0.89382,4.39633 -2.501857,6.305869 -0.526815,0.62559 -1.038347,1.059756 -1.361757,1.155798 -0.206915,0.06145 -0.238921,0.05988 -0.388402,-0.01903 z"
     id="path841" />
</svg>
