<?xml version="1.0" encoding="UTF-8" standalone="no"?>
<svg
   xmlns:dc="http://purl.org/dc/elements/1.1/"
   xmlns:cc="http://creativecommons.org/ns#"
   xmlns:rdf="http://www.w3.org/1999/02/22-rdf-syntax-ns#"
   xmlns:svg="http://www.w3.org/2000/svg"
   xmlns="http://www.w3.org/2000/svg"
   xmlns:sodipodi="http://sodipodi.sourceforge.net/DTD/sodipodi-0.dtd"
   xmlns:inkscape="http://www.inkscape.org/namespaces/inkscape"
   role="img"
   viewBox="0 0 24 24"
   version="1.1"
   id="svg6"
   sodipodi:docname="html5.svg"
   inkscape:version="1.0.2 (e86c870879, 2021-01-15, custom)">
  <metadata
     id="metadata12">
    <rdf:RDF>
      <cc:Work
         rdf:about="">
        <dc:format>image/svg+xml</dc:format>
        <dc:type
           rdf:resource="http://purl.org/dc/dcmitype/StillImage" />
      </cc:Work>
    </rdf:RDF>
  </metadata>
  <defs
     id="defs10" />
  <sodipodi:namedview
     pagecolor="#ffffff"
     bordercolor="#666666"
     borderopacity="1"
     objecttolerance="10"
     gridtolerance="10"
     guidetolerance="10"
     inkscape:pageopacity="0"
     inkscape:pageshadow="2"
     inkscape:window-width="1920"
     inkscape:window-height="1001"
     id="namedview8"
     showgrid="false"
     inkscape:zoom="30.625"
     inkscape:cx="12"
     inkscape:cy="11.934694"
     inkscape:window-x="-9"
     inkscape:window-y="-9"
     inkscape:window-maximized="1"
     inkscape:current-layer="svg6" />
  <title
     id="title2">HTML5 icon</title>
  <path
     d="M1.5 0h21l-1.91 21.563L11.977 24l-8.564-2.438L1.5 0zm7.031 9.75l-.232-2.718 10.059.003.23-2.622L5.412 4.41l.698 8.01h9.126l-.326 3.426-2.91.804-2.955-.81-.188-2.11H6.248l.33 4.171L12 19.351l5.379-1.443.744-8.157H8.531z"
     id="path4" />
  <path
     style="fill:#e34f26;stroke:#000000;stroke-width:0.123413;fill-opacity:1"
     d="m 11.461224,23.836356 c -0.233469,-0.0685 -2.1363923,-0.611661 -4.2287185,-1.20702 L 3.4282763,21.546866 2.4863998,10.912209 C 1.9683678,5.0631468 1.536641,0.21510204 1.527007,0.13877551 L 1.5094907,0 H 11.999768 22.490046 l -0.0188,0.15510204 c -0.01034,0.0853061 -0.44054,4.93061226 -0.956004,10.76734696 -0.515464,5.836735 -0.9399,10.6159 -0.943192,10.620367 -0.01796,0.02438 -8.556359,2.424005 -8.615563,2.42131 -0.03893,-0.0018 -0.261796,-0.05927 -0.495266,-0.12777 z m 3.232688,-5.189078 c 1.467023,-0.393793 2.675577,-0.72425 2.685677,-0.73435 0.01321,-0.01321 0.75335,-7.9735892 0.758502,-8.157826 3.76e-4,-0.013469 -2.159315,-0.02449 -4.799315,-0.02449 -4.088522,0 -4.8000005,-0.00676 -4.8000005,-0.045635 0,-0.068039 -0.1912924,-2.3321672 -0.2106413,-2.4931409 L 8.3114534,7.0530612 H 13.3374 18.363345 l 0.0188,-0.1387755 c 0.02157,-0.1592343 0.213771,-2.3602103 0.213771,-2.44803 0,-0.055496 -0.294782,-0.058092 -6.595918,-0.058092 -6.1256793,0 -6.5959184,0.00387 -6.5959184,0.054242 0,0.029833 0.1542857,1.8211618 0.3428572,3.9807301 0.1885714,2.1595692 0.3428571,3.9425062 0.3428571,3.9620852 0,0.02552 1.2890341,0.0356 4.5551021,0.0356 H 15.2 l 8.42e-4,0.07347 c 8.46e-4,0.07387 -0.299574,3.300468 -0.308429,3.312624 -0.0026,0.0036 -0.654564,0.185957 -1.448798,0.405292 l -1.444061,0.39879 -1.461001,-0.400407 C 9.7350028,16.010365 9.0738296,15.82671 9.0692797,15.822466 c -0.00455,-0.0042 -0.045362,-0.432564 -0.090694,-0.951823 -0.045332,-0.51926 -0.09003,-0.991863 -0.099329,-1.050231 L 8.8623481,13.714286 H 7.5387843 6.2152206 l 0.017325,0.0898 c 0.00953,0.04939 0.0874,0.994632 0.1730469,2.100542 l 0.1557224,2.010747 2.678527,0.720115 c 1.4731901,0.396063 2.7028791,0.721839 2.7326421,0.723947 0.02976,0.0021 1.254407,-0.318362 2.721429,-0.712155 z"
     id="path837" />
</svg>
