<?xml version="1.0" encoding="UTF-8" standalone="no"?>
<svg
   xmlns:dc="http://purl.org/dc/elements/1.1/"
   xmlns:cc="http://creativecommons.org/ns#"
   xmlns:rdf="http://www.w3.org/1999/02/22-rdf-syntax-ns#"
   xmlns:svg="http://www.w3.org/2000/svg"
   xmlns="http://www.w3.org/2000/svg"
   xmlns:sodipodi="http://sodipodi.sourceforge.net/DTD/sodipodi-0.dtd"
   xmlns:inkscape="http://www.inkscape.org/namespaces/inkscape"
   role="img"
   viewBox="0 0 24 24"
   version="1.1"
   id="svg6"
   sodipodi:docname="jquery.svg"
   inkscape:version="1.0.2 (e86c870879, 2021-01-15, custom)">
  <metadata
     id="metadata12">
    <rdf:RDF>
      <cc:Work
         rdf:about="">
        <dc:format>image/svg+xml</dc:format>
        <dc:type
           rdf:resource="http://purl.org/dc/dcmitype/StillImage" />
      </cc:Work>
    </rdf:RDF>
  </metadata>
  <defs
     id="defs10" />
  <sodipodi:namedview
     pagecolor="#ffffff"
     bordercolor="#666666"
     borderopacity="1"
     objecttolerance="10"
     gridtolerance="10"
     guidetolerance="10"
     inkscape:pageopacity="0"
     inkscape:pageshadow="2"
     inkscape:window-width="1920"
     inkscape:window-height="1001"
     id="namedview8"
     showgrid="false"
     inkscape:zoom="30.625"
     inkscape:cx="12"
     inkscape:cy="11.934694"
     inkscape:window-x="-9"
     inkscape:window-y="-9"
     inkscape:window-maximized="1"
     inkscape:current-layer="svg6" />
  <title
     id="title2">jQuery icon</title>
  <path
     d="M1.525 5.87c-2.126 3.054-1.862 7.026-.237 10.269.037.079.078.154.118.229.023.052.049.1.077.15.013.027.031.056.047.082.026.052.054.102.081.152l.157.266c.03.049.057.097.09.146.056.094.12.187.178.281.026.04.05.078.079.117a6.368 6.368 0 00.31.445c.078.107.156.211.24.315.027.038.058.076.086.115l.22.269c.028.03.055.067.084.099.098.118.202.233.306.35l.005.006a3.134 3.134 0 00.425.44c.08.083.16.165.245.245l.101.097c.111.105.223.209.34.309.002 0 .003.002.005.003l.057.05c.102.089.205.178.31.26l.125.105c.085.068.174.133.26.2l.137.105c.093.07.192.139.287.207.035.025.07.05.106.073l.03.023.28.185.12.08c.148.094.294.184.44.272.041.02.084.044.123.068.108.062.22.125.329.183.06.034.122.063.184.094.075.042.153.083.234.125a.324.324 0 01.056.023c.033.015.064.031.096.047.12.06.245.118.375.175.024.01.05.02.076.034.144.063.289.123.438.182.034.01.07.027.105.04.135.051.274.103.411.152l.05.018c.154.052.305.102.46.15.036.01.073.023.111.033.16.048.314.105.474.137 10.273 1.872 13.258-6.177 13.258-6.177-2.508 3.266-6.958 4.127-11.174 3.169-.156-.036-.312-.086-.47-.132a13.539 13.539 0 01-.567-.182l-.062-.024c-.136-.046-.267-.097-.4-.148a1.615 1.615 0 00-.11-.04c-.148-.06-.29-.121-.433-.184-.031-.01-.057-.024-.088-.036a23.44 23.44 0 01-.362-.17 1.485 1.485 0 01-.106-.052c-.094-.044-.188-.095-.28-.143a3.947 3.947 0 01-.187-.096c-.114-.06-.227-.125-.34-.187-.034-.024-.073-.044-.112-.066a15.922 15.922 0 01-.439-.27 2.107 2.107 0 01-.118-.078 6.01 6.01 0 01-.312-.207c-.035-.023-.067-.048-.103-.073a9.553 9.553 0 01-.295-.212c-.042-.034-.087-.066-.132-.1-.088-.07-.177-.135-.265-.208l-.118-.095a10.593 10.593 0 01-.335-.28.258.258 0 00-.037-.031l-.347-.316-.1-.094c-.082-.084-.166-.164-.25-.246l-.098-.1a9.081 9.081 0 01-.309-.323l-.015-.016c-.106-.116-.21-.235-.313-.355-.027-.03-.053-.064-.08-.097l-.227-.277a21.275 21.275 0 01-.34-.449C2.152 11.79 1.306 7.384 3.177 3.771m4.943-.473c-1.54 2.211-1.454 5.169-.254 7.508a9.111 9.111 0 00.678 1.133c.23.33.484.721.793.988.107.122.223.24.344.36l.09.09c.114.11.232.217.35.325l.016.013a9.867 9.867 0 00.414.342c.034.023.063.05.096.073.14.108.282.212.428.316l.015.009c.062.045.128.086.198.13.028.018.06.042.09.06.106.068.21.132.318.197.017.007.032.016.048.023.09.055.188.108.282.157.033.02.065.035.1.054.066.033.132.068.197.102l.032.014c.135.067.273.129.408.19.034.014.063.025.092.039.111.048.224.094.336.137.05.017.097.037.144.052.102.038.21.073.31.108l.14.045c.147.045.295.104.449.13C22.164 17.206 24 11.098 24 11.098c-1.653 2.38-4.852 3.513-8.261 2.628a8.04 8.04 0 01-.449-.13c-.048-.014-.09-.029-.136-.043-.104-.036-.211-.07-.312-.109l-.144-.054c-.113-.045-.227-.087-.336-.135-.034-.015-.065-.025-.091-.04-.14-.063-.281-.125-.418-.192l-.206-.107-.119-.06a5.673 5.673 0 01-.265-.15.62.62 0 01-.062-.035c-.106-.066-.217-.13-.318-.198-.034-.019-.065-.042-.097-.062l-.208-.136c-.144-.1-.285-.208-.428-.313-.032-.029-.063-.053-.094-.079-1.499-1.178-2.681-2.79-3.242-4.613-.59-1.897-.46-4.023.56-5.75m4.292-.147c-.909 1.334-.996 2.99-.37 4.46.665 1.563 2.024 2.79 3.608 3.37.065.025.128.046.196.07l.088.027c.092.03.185.063.28.084 4.381.845 5.567-2.25 5.886-2.704-1.043 1.498-2.792 1.857-4.938 1.335a4.85 4.85 0 01-.516-.16 6.352 6.352 0 01-.618-.254 6.53 6.53 0 01-1.082-.66c-1.922-1.457-3.113-4.236-1.859-6.5"
     id="path4" />
  <path
     style="fill:#0769ad;stroke:#000000;stroke-width:0.123413;fill-opacity:1"
     d="M 12.293878,23.522864 C 11.804006,23.488299 11.018264,23.398777 10.579592,23.32755 9.1160336,23.089913 7.0293868,22.155339 5.5448251,21.072562 2.5015231,18.852904 0.57446651,15.714365 0.09458425,12.195918 0.01293003,11.597238 0.01209112,10.230309 0.0930412,9.6816327 0.16300995,9.2073878 0.27672435,8.6737277 0.39222851,8.277551 0.58099791,7.6300761 0.96735171,6.7750142 1.3291112,6.2040816 1.5042472,5.9276803 2.9513173,4.0669636 2.9737171,4.0893633 c 0.00647,0.00647 -0.068029,0.2094201 -0.1655561,0.4509973 -0.966465,2.3939588 -0.8763519,5.264411 0.2494619,7.9463244 1.0330808,2.461006 2.9514044,4.656688 5.4022906,6.183374 1.2153081,0.75703 2.8613035,1.431867 4.1115155,1.685668 1.083799,0.220019 1.931906,0.293802 3.129158,0.272229 0.962778,-0.01735 1.396094,-0.05879 2.148535,-0.205509 2.069869,-0.403592 3.905336,-1.402314 5.15338,-2.804079 0.151784,-0.17048 0.281284,-0.30465 0.287778,-0.298156 0.01893,0.01893 -0.237814,0.513748 -0.463546,0.893389 -0.806427,1.356268 -1.951854,2.58406 -3.202244,3.432514 -1.4728,0.999369 -3.08825,1.584235 -5.012245,1.81466 -0.421609,0.05049 -1.915636,0.0905 -2.318367,0.06209 z"
     id="path837" />
  <path
     style="fill:#0769ad;fill-opacity:1;stroke:#000000;stroke-width:0.123413"
     d="M 15.493878,16.03064 C 14.690327,15.965962 14.192803,15.877391 13.696542,15.710671 12.5502,15.325556 11.680973,14.872075 10.742857,14.169717 9.1446866,12.973182 7.9765254,11.379721 7.3826615,9.5861544 7.2487363,9.1816784 7.121522,8.6315144 7.048401,8.1405776 6.9737091,7.6390942 6.9748477,6.6324751 7.0506836,6.122449 7.1740533,5.2927406 7.4544064,4.4566126 7.8233679,3.8179873 8.0189066,3.4795349 9.0305951,2.0156291 9.0532799,2.0383139 9.0602407,2.0452747 8.9978779,2.223046 8.914696,2.4333613 8.6009736,3.2265699 8.4614752,4.0036016 8.4605094,4.9632653 c -6.563e-4,0.6521969 0.034455,1.0219644 0.1488291,1.5673469 0.6216771,2.9644174 2.8913335,5.5794708 5.9049475,6.8035638 1.201615,0.488081 2.221266,0.686968 3.52653,0.687863 0.828134,5.68e-4 1.193726,-0.03825 1.877551,-0.199363 1.52683,-0.359725 2.938587,-1.229102 3.832675,-2.360208 0.07407,-0.0937 0.134672,-0.149848 0.134672,-0.124762 0,0.08702 -0.420892,0.892648 -0.644548,1.233723 -1.147961,1.75064 -2.853135,2.889599 -4.955452,3.309959 -0.745857,0.149135 -1.976152,0.214907 -2.791836,0.149252 z"
     id="path839" />
  <path
     style="fill:#0769ad;fill-opacity:1;stroke:#000000;stroke-width:0.123413"
     d="M 18.220408,9.4800715 C 17.233294,9.3572931 16.444026,9.0688121 15.62449,8.5312522 14.27676,7.6472333 13.367429,6.3809208 13.025371,4.9117793 c -0.08114,-0.3485104 -0.09086,-0.4526658 -0.0927,-0.993412 -0.0016,-0.4654262 0.01152,-0.6677881 0.0571,-0.8816326 0.143871,-0.6750277 0.415837,-1.268192 0.871373,-1.9004882 0.151414,-0.21016644 0.278581,-0.37883754 0.282594,-0.37482464 0.004,0.004013 -0.03572,0.12886948 -0.08831,0.27745904 -0.234646,0.6630829 -0.302059,1.496443 -0.178782,2.2100987 0.07548,0.4369614 0.296124,1.0982103 0.506642,1.5183673 0.876539,1.7494182 2.459338,2.9502913 4.408549,3.3447775 1.701642,0.344382 3.121536,0.055181 4.056813,-0.8262837 0.121406,-0.1144203 0.220738,-0.1938123 0.220738,-0.1764268 0,0.017385 -0.08259,0.1550837 -0.183533,0.3059961 -0.782324,1.1695957 -1.836871,1.84214 -3.196059,2.0383072 -0.295458,0.042643 -1.206993,0.058991 -1.469388,0.026354 z"
     id="path841" />
</svg>
