<?xml version="1.0" encoding="UTF-8" standalone="no"?>
<svg
   xmlns:dc="http://purl.org/dc/elements/1.1/"
   xmlns:cc="http://creativecommons.org/ns#"
   xmlns:rdf="http://www.w3.org/1999/02/22-rdf-syntax-ns#"
   xmlns:svg="http://www.w3.org/2000/svg"
   xmlns="http://www.w3.org/2000/svg"
   xmlns:sodipodi="http://sodipodi.sourceforge.net/DTD/sodipodi-0.dtd"
   xmlns:inkscape="http://www.inkscape.org/namespaces/inkscape"
   role="img"
   viewBox="0 0 24 24"
   version="1.1"
   id="svg6"
   sodipodi:docname="linkedin.svg"
   inkscape:version="1.0.2 (e86c870879, 2021-01-15, custom)">
  <metadata
     id="metadata12">
    <rdf:RDF>
      <cc:Work
         rdf:about="">
        <dc:format>image/svg+xml</dc:format>
        <dc:type
           rdf:resource="http://purl.org/dc/dcmitype/StillImage" />
      </cc:Work>
    </rdf:RDF>
  </metadata>
  <defs
     id="defs10" />
  <sodipodi:namedview
     pagecolor="#ffffff"
     bordercolor="#666666"
     borderopacity="1"
     objecttolerance="10"
     gridtolerance="10"
     guidetolerance="10"
     inkscape:pageopacity="0"
     inkscape:pageshadow="2"
     inkscape:window-width="2400"
     inkscape:window-height="1271"
     id="namedview8"
     showgrid="false"
     inkscape:zoom="30.625"
     inkscape:cx="12"
     inkscape:cy="11.934694"
     inkscape:window-x="2391"
     inkscape:window-y="-9"
     inkscape:window-maximized="1"
     inkscape:current-layer="svg6" />
  <title
     id="title2">LinkedIn icon</title>
  <path
     d="M20.447 20.452h-3.554v-5.569c0-1.328-.027-3.037-1.852-3.037-1.853 0-2.136 1.445-2.136 2.939v5.667H9.351V9h3.414v1.561h.046c.477-.9 1.637-1.85 3.37-1.85 3.601 0 4.267 2.37 4.267 5.455v6.286zM5.337 7.433c-1.144 0-2.063-.926-2.063-2.065 0-1.138.92-2.063 2.063-2.063 1.14 0 2.064.925 2.064 2.063 0 1.139-.925 2.065-2.064 2.065zm1.782 13.019H3.555V9h3.564v11.452zM22.225 0H1.771C.792 0 0 .774 0 1.729v20.542C0 23.227.792 24 1.771 24h20.451C23.2 24 24 23.227 24 22.271V1.729C24 .774 23.2 0 22.222 0h.003z"
     id="path4" />
  <path
     style="fill:#0a66c2;stroke:#000000;stroke-width:0.123413;opacity:0.998;fill-opacity:1"
     d="M 1.5566744,23.96516 C 1.2850238,23.929581 1.1532135,23.885778 0.90214697,23.747644 0.49097482,23.521422 0.14527552,23.055784 0.05195031,22.602474 0.00150773,22.357459 0.00150773,1.6425409 0.05195031,1.3975256 0.1761387,0.79430393 0.6752463,0.2684173 1.3061224,0.07606231 1.4942069,0.0187151 1.9205012,0.01632653 11.967347,0.01632653 c 8.835902,0 10.493268,0.0070797 10.644898,0.04547144 0.679948,0.17215817 1.196651,0.68932879 1.334522,1.33572763 0.05277,0.2473939 0.05277,20.9575544 0,21.2049484 -0.134074,0.628599 -0.603606,1.11388 -1.285374,1.328489 -0.147184,0.04633 -1.194203,0.05193 -10.530781,0.05635 -5.7020406,0.0027 -10.4603126,-0.0073 -10.5739376,-0.02215 z M 7.1346939,14.726531 V 8.9795918 H 5.3387755 3.5428571 v 5.7469392 5.746938 h 1.7959184 1.7959184 z m 5.7795921,2.777288 c 0,-1.872345 0.01319,-3.12402 0.0357,-3.387424 0.10907,-1.276306 0.562558,-1.952542 1.466339,-2.18659 0.299196,-0.07748 0.93031,-0.07686 1.191836,0.0012 0.582922,0.173935 0.949867,0.58617 1.122331,1.260854 0.126676,0.495558 0.134625,0.734959 0.13472,4.057143 l 9.2e-5,3.224488 h 1.797548 1.797548 l -0.0129,-3.795918 c -0.0136,-4.004269 -0.0131,-3.99023 -0.17327,-4.791837 -0.375644,-1.879968 -1.335089,-2.8444941 -3.104896,-3.1213362 -0.540519,-0.084551 -1.429393,-0.076661 -1.871379,0.01661 -1.012325,0.2136287 -1.871776,0.7796045 -2.379433,1.5669322 l -0.134853,0.209144 V 9.7683278 8.9795918 H 11.053061 9.322449 v 5.7469392 5.746938 h 1.795918 1.795919 z M 5.8413231,7.3805061 C 6.7677718,7.1435605 7.4064229,6.3314815 7.4085012,5.3877551 7.4093437,5.0057747 7.3619373,4.7981992 7.1926622,4.4426508 7.0871363,4.2210024 7.0093509,4.1151432 6.7960033,3.9028333 6.3778269,3.4866903 5.9254831,3.2994563 5.3358354,3.2984418 4.7565336,3.2974459 4.2883553,3.494063 3.8663056,3.9155915 3.3482289,4.4330286 3.1473311,5.1513469 3.3186429,5.8737822 c 0.063773,0.2689358 0.274724,0.6629029 0.4706146,0.8789084 0.3304839,0.3644196 0.6873613,0.5628813 1.2066609,0.6710312 0.1835461,0.038225 0.6127605,0.016285 0.8454047,-0.043216 z"
     id="path837" />
</svg>
