<?xml version="1.0" encoding="UTF-8" standalone="no"?>
<svg
   xmlns:dc="http://purl.org/dc/elements/1.1/"
   xmlns:cc="http://creativecommons.org/ns#"
   xmlns:rdf="http://www.w3.org/1999/02/22-rdf-syntax-ns#"
   xmlns:svg="http://www.w3.org/2000/svg"
   xmlns="http://www.w3.org/2000/svg"
   xmlns:sodipodi="http://sodipodi.sourceforge.net/DTD/sodipodi-0.dtd"
   xmlns:inkscape="http://www.inkscape.org/namespaces/inkscape"
   role="img"
   viewBox="0 0 24 24"
   version="1.1"
   id="svg6"
   sodipodi:docname="mongodb.svg"
   inkscape:version="1.0.2 (e86c870879, 2021-01-15, custom)">
  <metadata
     id="metadata12">
    <rdf:RDF>
      <cc:Work
         rdf:about="">
        <dc:format>image/svg+xml</dc:format>
        <dc:type
           rdf:resource="http://purl.org/dc/dcmitype/StillImage" />
      </cc:Work>
    </rdf:RDF>
  </metadata>
  <defs
     id="defs10" />
  <sodipodi:namedview
     pagecolor="#ffffff"
     bordercolor="#666666"
     borderopacity="1"
     objecttolerance="10"
     gridtolerance="10"
     guidetolerance="10"
     inkscape:pageopacity="0"
     inkscape:pageshadow="2"
     inkscape:window-width="1920"
     inkscape:window-height="1001"
     id="namedview8"
     showgrid="false"
     inkscape:zoom="30.625"
     inkscape:cx="12"
     inkscape:cy="11.934694"
     inkscape:window-x="-9"
     inkscape:window-y="-9"
     inkscape:window-maximized="1"
     inkscape:current-layer="svg6" />
  <title
     id="title2">MongoDB icon</title>
  <path
     d="M17.182 9.518c-1.263-5.56-4.242-7.387-4.562-8.086C12.268.939 11.887 0 11.887 0l-.005.049v.013h-.001a.574.574 0 00-.004.039v.015h-.002l-.002.026v.026h-.003c-.001.008-.001.018-.003.025v.021h-.002c0 .007 0 .015-.002.021v.02h-.002l-.002.032v.002l-.01.05v.008h-.001l-.003.012v.017h-.003v.022h-.005v.018h-.005v.021h-.004v.019h-.004v.017h-.006v.014h-.004v.018h-.004v.014h-.005v.013h-.003v.015h-.004l-.001.004v.01h-.003l-.001.006v.006h-.002a.044.044 0 00-.002.01l-.01.021v.002a.03.03 0 00-.005.007v.008h-.004v.008h-.005v.008h-.003v.01h-.006v.014h-.004v.004h-.004v.008h-.004v.011h-.004v.008h-.006v.011h-.004v.008h-.005v.008h-.003v.01h-.005v.008h-.004v.006h-.004v.008h-.006V.76h-.004v.006h-.005v.008h-.004v.011h-.005v.004h-.003v.008h-.006v.004h-.004v.01h-.004v.004h-.004v.008h-.005v.006h-.003l-.002.004v.004h-.002l-.002.004v.001h-.001a.016.016 0 01-.004.007v.003h-.001l-.012.018v.001l-.01.01v.002l-.003.003v.003h-.002l-.003.003v.001h-.001l-.003.004v.004h-.003l-.002.002v.002h-.002c0 .002-.002.002-.002.003v.003h-.004l-.002.003V.92h-.003v.004h-.004V.93h-.004v.008h-.005V.93h-.005v.004h-.004V.94h-.005v.008h-.005v.004h-.004v.006h-.004v.004h-.004V.97h-.006v.004h-.004V.98h-.005v.004h-.004v.005h-.005v.01h-.002v.004h-.006v.005h-.004v.002h-.004v.004h-.005v.01h-.004v.004h-.005v.004h-.004v.006h-.005v.004h-.005v.004h-.004v.004h-.004v.01h-.004v.005h-.006v.004h-.004v.004h-.005v.006h-.004v.004h-.005v.007h-.004v.004h-.006V1.1h-.002v.004h-.004v.004h-.005v.004h-.004v.006h-.005v.004h-.003l-.001.002v.002h-.002l-.004.004-.004.003v.006h-.004v.005h-.004v.004h-.004v.004h-.003l-.003.003v.003h-.002l-.002.002v.003h-.002c-.005.006-.007.01-.014.016a.366.366 0 00-.051.042l-.022.017v.001h-.001a2.821 2.821 0 01-.05.039v.001l-.073.062V1.34h-.002c-.057.047-.117.1-.186.159V1.5h-.001c-.17.148-.37.338-.595.568l-.015.015-.004.004c-1.36 1.407-3.503 4.339-3.73 9.077-.02.392-.015.773.007 1.144v.009c.109 1.867.695 3.461 1.428 4.756v.001c.292.516.607.985.926 1.405v.001c1.102 1.455 2.227 2.317 2.514 2.526.44 1.023.4 2.779.4 2.779l.644.215s-.131-1.701.053-2.522c.057-.257.192-.476.349-.662a8.38 8.38 0 00.797-.645c.018-.019.028-.036.044-.054 1.52-1.418 4.362-4.91 3.388-10.599z"
     id="path4" />
  <path
     style="fill:#47a248;stroke:#000000;stroke-width:0.123413;fill-opacity:1"
     d="M 12.212245,23.872343 11.95102,23.782456 11.92795,23.442248 C 11.846693,22.24396 11.779195,21.76226 11.624441,21.276257 L 11.53891,21.007644 11.189863,20.729117 C 10.280453,20.00344 9.2848229,18.91147 8.6047652,17.893878 7.5668265,16.340776 6.9684973,14.795936 6.720393,13.028571 6.6392311,12.450416 6.6397373,10.891796 6.7213105,10.204082 7.0125312,7.7489055 7.7326614,5.7234906 8.9793968,3.8530612 9.5626638,2.978008 10.224075,2.2034924 10.88064,1.6266966 c 0.703724,-0.6182255 0.917336,-0.88620922 0.971301,-1.21853333 0.05077,-0.31265575 0.04098,-0.31882642 0.280723,0.17684633 0.369634,0.7642091 0.50394,0.9562138 1.152683,1.64788 0.681964,0.727086 1.031223,1.1400208 1.448678,1.7127933 1.252704,1.7187824 2.249893,4.181283 2.529901,6.2474481 0.09837,0.725857 0.106845,2.351678 0.0158,3.031359 -0.229348,1.712229 -0.755931,3.204118 -1.615082,4.575774 -0.663101,1.058658 -1.615941,2.146711 -2.442864,2.789522 -0.331894,0.257999 -0.369106,0.297212 -0.489222,0.515526 -0.196557,0.357248 -0.260544,0.92827 -0.23198,2.070198 0.01089,0.43551 0.0092,0.790686 -0.0037,0.789278 -0.0129,-0.0014 -0.14101,-0.04301 -0.284683,-0.09244 z"
     id="path837" />
</svg>
