<?xml version="1.0" encoding="UTF-8" standalone="no"?>
<svg
   xmlns:dc="http://purl.org/dc/elements/1.1/"
   xmlns:cc="http://creativecommons.org/ns#"
   xmlns:rdf="http://www.w3.org/1999/02/22-rdf-syntax-ns#"
   xmlns:svg="http://www.w3.org/2000/svg"
   xmlns="http://www.w3.org/2000/svg"
   xmlns:sodipodi="http://sodipodi.sourceforge.net/DTD/sodipodi-0.dtd"
   xmlns:inkscape="http://www.inkscape.org/namespaces/inkscape"
   role="img"
   viewBox="0 0 24 24"
   version="1.1"
   id="svg6"
   sodipodi:docname="node-dot-js.svg"
   inkscape:version="1.0.2 (e86c870879, 2021-01-15, custom)">
  <metadata
     id="metadata12">
    <rdf:RDF>
      <cc:Work
         rdf:about="">
        <dc:format>image/svg+xml</dc:format>
        <dc:type
           rdf:resource="http://purl.org/dc/dcmitype/StillImage" />
      </cc:Work>
    </rdf:RDF>
  </metadata>
  <defs
     id="defs10" />
  <sodipodi:namedview
     pagecolor="#ffffff"
     bordercolor="#666666"
     borderopacity="1"
     objecttolerance="10"
     gridtolerance="10"
     guidetolerance="10"
     inkscape:pageopacity="0"
     inkscape:pageshadow="2"
     inkscape:window-width="1920"
     inkscape:window-height="1001"
     id="namedview8"
     showgrid="false"
     inkscape:zoom="30.625"
     inkscape:cx="12"
     inkscape:cy="11.934694"
     inkscape:window-x="-9"
     inkscape:window-y="-9"
     inkscape:window-maximized="1"
     inkscape:current-layer="svg6" />
  <title
     id="title2">Node.js icon</title>
  <path
     d="M11.998,24c-0.321,0-0.641-0.084-0.922-0.247l-2.936-1.737c-0.438-0.245-0.224-0.332-0.08-0.383 c0.585-0.203,0.703-0.25,1.328-0.604c0.065-0.037,0.151-0.023,0.218,0.017l2.256,1.339c0.082,0.045,0.197,0.045,0.272,0l8.795-5.076 c0.082-0.047,0.134-0.141,0.134-0.238V6.921c0-0.099-0.053-0.192-0.137-0.242l-8.791-5.072c-0.081-0.047-0.189-0.047-0.271,0 L3.075,6.68C2.99,6.729,2.936,6.825,2.936,6.921v10.15c0,0.097,0.054,0.189,0.139,0.235l2.409,1.392 c1.307,0.654,2.108-0.116,2.108-0.89V7.787c0-0.142,0.114-0.253,0.256-0.253h1.115c0.139,0,0.255,0.112,0.255,0.253v10.021 c0,1.745-0.95,2.745-2.604,2.745c-0.508,0-0.909,0-2.026-0.551L2.28,18.675c-0.57-0.329-0.922-0.945-0.922-1.604V6.921 c0-0.659,0.353-1.275,0.922-1.603l8.795-5.082c0.557-0.315,1.296-0.315,1.848,0l8.794,5.082c0.57,0.329,0.924,0.944,0.924,1.603 v10.15c0,0.659-0.354,1.273-0.924,1.604l-8.794,5.078C12.643,23.916,12.324,24,11.998,24z M19.099,13.993 c0-1.9-1.284-2.406-3.987-2.763c-2.731-0.361-3.009-0.548-3.009-1.187c0-0.528,0.235-1.233,2.258-1.233 c1.807,0,2.473,0.389,2.747,1.607c0.024,0.115,0.129,0.199,0.247,0.199h1.141c0.071,0,0.138-0.031,0.186-0.081 c0.048-0.054,0.074-0.123,0.067-0.196c-0.177-2.098-1.571-3.076-4.388-3.076c-2.508,0-4.004,1.058-4.004,2.833 c0,1.925,1.488,2.457,3.895,2.695c2.88,0.282,3.103,0.703,3.103,1.269c0,0.983-0.789,1.402-2.642,1.402 c-2.327,0-2.839-0.584-3.011-1.742c-0.02-0.124-0.126-0.215-0.253-0.215h-1.137c-0.141,0-0.254,0.112-0.254,0.253 c0,1.482,0.806,3.248,4.655,3.248C17.501,17.007,19.099,15.91,19.099,13.993z"
     id="path4" />
  <path
     style="fill:#339933;stroke:#000000;stroke-width:0.123413;fill-opacity:1"
     d="m 11.776694,23.962377 c -0.113839,-0.0134 -0.278302,-0.04805 -0.365473,-0.077 -0.179625,-0.05966 -3.2954368,-1.890081 -3.4397549,-2.020724 -0.1223827,-0.110785 -0.085964,-0.156022 0.2024337,-0.251452 0.3366958,-0.111411 0.6823337,-0.263397 0.9811186,-0.431421 0.1498381,-0.08426 0.2974394,-0.153206 0.328003,-0.153206 0.030563,0 0.5760746,0.309151 1.2122476,0.687002 0.636172,0.37785 1.19258,0.696012 1.236463,0.707026 0.04388,0.01101 0.120868,0.0045 0.171081,-0.01444 0.187304,-0.0707 8.830731,-5.075812 8.901269,-5.154419 l 0.07347,-0.08188 v -5.155826 c 0,-3.7040472 -0.01019,-5.1781951 -0.03619,-5.2352662 -0.05361,-0.1176519 -8.890819,-5.2134289 -9.041248,-5.2134289 -0.14826,0 -8.9894623,5.099298 -9.0423124,5.2152915 -0.024883,0.054613 -0.035347,1.6032924 -0.035347,5.2316076 0,4.860275 0.00326,5.158002 0.057143,5.223738 0.031429,0.03834 0.6302041,0.400398 1.3306123,0.804575 1.449245,0.836301 1.6060829,0.904196 2.0897959,0.904676 0.2243056,2.29e-4 0.3379523,-0.01662 0.4800532,-0.07114 0.2445839,-0.09385 0.4889695,-0.316827 0.6040167,-0.551107 l 0.09144,-0.186207 0.016326,-5.219159 0.016327,-5.2191589 0.091617,-0.0788 c 0.089824,-0.077259 0.1036356,-0.078801 0.7058008,-0.078801 0.5734031,0 0.6199396,0.00453 0.7008751,0.068191 l 0.086691,0.068192 -0.00888,5.3930329 -0.00888,5.393033 -0.073081,0.261225 C 8.78336,19.866565 8.001521,20.467414 6.7572542,20.528712 6.1061051,20.560792 5.6529917,20.463558 4.9286942,20.136321 4.536353,19.959062 2.2904704,18.670856 2.0517463,18.486145 1.8127304,18.301208 1.5686225,17.940604 1.4690295,17.625336 l -0.081274,-0.257279 3.876e-4,-5.361579 C 1.3885682,6.119935 1.3754973,6.5077127 1.588043,6.0759709 1.6579332,5.9340039 1.7702082,5.786913 1.9256498,5.6336741 2.1468171,5.4156408 2.3869695,5.2723138 6.6955977,2.7868846 10.107917,0.81849084 11.289316,0.15225353 11.461224,0.09936076 11.627448,0.048217 11.775563,0.02894668 12.004225,0.02871397 c 0.474688,-4.8311e-4 0.632562,0.06544311 1.876625,0.78365507 6.576099,3.79645736 7.976336,4.61455276 8.129874,4.74992126 0.231281,0.2039105 0.423217,0.5061149 0.521677,0.8213832 l 0.08158,0.2612245 -0.009,5.420408 -0.009,5.420408 -0.07944,0.202586 c -0.112108,0.285887 -0.350644,0.622016 -0.559086,0.787829 -0.140437,0.111715 -7.47387,4.373961 -8.945145,5.198985 -0.46364,0.259989 -0.800949,0.338412 -1.235551,0.287263 z"
     id="path837" />
  <path
     style="fill:#339933;fill-opacity:1;stroke:#000000;stroke-width:0.123413"
     d="m 13.877551,16.958387 c -0.05388,-0.0063 -0.237551,-0.02726 -0.408163,-0.04662 -1.937613,-0.21985 -3.10992,-1.127954 -3.347927,-2.593403 -0.07265,-0.447345 -0.06481,-0.622882 0.03216,-0.719851 0.07961,-0.07961 0.0844,-0.08015 0.716546,-0.08015 0.776184,0 0.771684,-0.0021 0.853906,0.405149 0.157284,0.779094 0.498656,1.149847 1.261809,1.370408 0.454897,0.131471 0.821724,0.166288 1.740652,0.165214 0.670499,-7.84e-4 0.916406,-0.01326 1.169709,-0.05934 1.039895,-0.189193 1.458862,-0.567488 1.458862,-1.317239 0,-0.507401 -0.164429,-0.696425 -0.791275,-0.909629 -0.453398,-0.154211 -1.029838,-0.255409 -2.224694,-0.390559 -0.397543,-0.04497 -0.818317,-0.09648 -0.935051,-0.11447 -1.820308,-0.280567 -2.698602,-0.847861 -2.960177,-1.911992 -0.07638,-0.310722 -0.07688,-0.9990893 -9.4e-4,-1.2825654 0.33917,-1.2660421 1.391354,-1.9752216 3.206015,-2.1608771 0.481242,-0.049235 1.521052,-0.022851 2.008163,0.050956 1.13813,0.172449 1.920201,0.5553587 2.422313,1.1859892 0.327371,0.4111637 0.566654,1.0162349 0.632683,1.5998533 0.04903,0.433386 -0.002,0.463158 -0.79215,0.462504 -0.398901,-3.3e-4 -0.60682,-0.01329 -0.662846,-0.04131 -0.06409,-0.03205 -0.103315,-0.107401 -0.182505,-0.350539 C 16.841952,9.5054913 16.558618,9.188537 15.97604,8.9909542 15.499928,8.8294795 14.647473,8.7578676 13.885638,8.8153464 c -1.204774,0.090898 -1.739566,0.4263575 -1.780825,1.1170604 -0.01964,0.3287982 0.0084,0.4618232 0.125414,0.5951022 0.248008,0.282466 0.762599,0.415483 2.659569,0.687474 1.935359,0.277495 2.667582,0.474756 3.284407,0.88482 0.416499,0.276889 0.674977,0.637519 0.818631,1.14216 0.09661,0.339384 0.105928,1.087774 0.01762,1.41531 -0.134825,0.500068 -0.326723,0.851075 -0.643107,1.176329 -0.575355,0.591485 -1.457487,0.959392 -2.628887,1.096418 -0.380942,0.04456 -1.566917,0.06264 -1.860909,0.02837 z"
     id="path839" />
</svg>
