<?xml version="1.0" encoding="UTF-8" standalone="no"?>
<svg
   xmlns:dc="http://purl.org/dc/elements/1.1/"
   xmlns:cc="http://creativecommons.org/ns#"
   xmlns:rdf="http://www.w3.org/1999/02/22-rdf-syntax-ns#"
   xmlns:svg="http://www.w3.org/2000/svg"
   xmlns="http://www.w3.org/2000/svg"
   xmlns:sodipodi="http://sodipodi.sourceforge.net/DTD/sodipodi-0.dtd"
   xmlns:inkscape="http://www.inkscape.org/namespaces/inkscape"
   role="img"
   viewBox="0 0 24 24"
   version="1.1"
   id="svg6"
   sodipodi:docname="react.svg"
   inkscape:version="1.0.2 (e86c870879, 2021-01-15, custom)">
  <metadata
     id="metadata12">
    <rdf:RDF>
      <cc:Work
         rdf:about="">
        <dc:format>image/svg+xml</dc:format>
        <dc:type
           rdf:resource="http://purl.org/dc/dcmitype/StillImage" />
      </cc:Work>
    </rdf:RDF>
  </metadata>
  <defs
     id="defs10" />
  <sodipodi:namedview
     pagecolor="#ffffff"
     bordercolor="#666666"
     borderopacity="1"
     objecttolerance="10"
     gridtolerance="10"
     guidetolerance="10"
     inkscape:pageopacity="0"
     inkscape:pageshadow="2"
     inkscape:window-width="1920"
     inkscape:window-height="1001"
     id="namedview8"
     showgrid="false"
     inkscape:zoom="30.625"
     inkscape:cx="12"
     inkscape:cy="11.934694"
     inkscape:window-x="-9"
     inkscape:window-y="-9"
     inkscape:window-maximized="1"
     inkscape:current-layer="svg6" />
  <title
     id="title2">React icon</title>
  <path
     d="M14.23 12.004a2.236 2.236 0 0 1-2.235 2.236 2.236 2.236 0 0 1-2.236-2.236 2.236 2.236 0 0 1 2.235-2.236 2.236 2.236 0 0 1 2.236 2.236zm2.648-10.69c-1.346 0-3.107.96-4.888 2.622-1.78-1.653-3.542-2.602-4.887-2.602-.41 0-.783.093-1.106.278-1.375.793-1.683 3.264-.973 6.365C1.98 8.917 0 10.42 0 12.004c0 1.59 1.99 3.097 5.043 4.03-.704 3.113-.39 5.588.988 6.38.32.187.69.275 1.102.275 1.345 0 3.107-.96 4.888-2.624 1.78 1.654 3.542 2.603 4.887 2.603.41 0 .783-.09 1.106-.275 1.374-.792 1.683-3.263.973-6.365C22.02 15.096 24 13.59 24 12.004c0-1.59-1.99-3.097-5.043-4.032.704-3.11.39-5.587-.988-6.38-.318-.184-.688-.277-1.092-.278zm-.005 1.09v.006c.225 0 .406.044.558.127.666.382.955 1.835.73 3.704-.054.46-.142.945-.25 1.44-.96-.236-2.006-.417-3.107-.534-.66-.905-1.345-1.727-2.035-2.447 1.592-1.48 3.087-2.292 4.105-2.295zm-9.77.02c1.012 0 2.514.808 4.11 2.28-.686.72-1.37 1.537-2.02 2.442-1.107.117-2.154.298-3.113.538-.112-.49-.195-.964-.254-1.42-.23-1.868.054-3.32.714-3.707.19-.09.4-.127.563-.132zm4.882 3.05c.455.468.91.992 1.36 1.564-.44-.02-.89-.034-1.345-.034-.46 0-.915.01-1.36.034.44-.572.895-1.096 1.345-1.565zM12 8.1c.74 0 1.477.034 2.202.093.406.582.802 1.203 1.183 1.86.372.64.71 1.29 1.018 1.946-.308.655-.646 1.31-1.013 1.95-.38.66-.773 1.288-1.18 1.87-.728.063-1.466.098-2.21.098-.74 0-1.477-.035-2.202-.093-.406-.582-.802-1.204-1.183-1.86-.372-.64-.71-1.29-1.018-1.946.303-.657.646-1.313 1.013-1.954.38-.66.773-1.286 1.18-1.868.728-.064 1.466-.098 2.21-.098zm-3.635.254c-.24.377-.48.763-.704 1.16-.225.39-.435.782-.635 1.174-.265-.656-.49-1.31-.676-1.947.64-.15 1.315-.283 2.015-.386zm7.26 0c.695.103 1.365.23 2.006.387-.18.632-.405 1.282-.66 1.933-.2-.39-.41-.783-.64-1.174-.225-.392-.465-.774-.705-1.146zm3.063.675c.484.15.944.317 1.375.498 1.732.74 2.852 1.708 2.852 2.476-.005.768-1.125 1.74-2.857 2.475-.42.18-.88.342-1.355.493-.28-.958-.646-1.956-1.1-2.98.45-1.017.81-2.01 1.085-2.964zm-13.395.004c.278.96.645 1.957 1.1 2.98-.45 1.017-.812 2.01-1.086 2.964-.484-.15-.944-.318-1.37-.5-1.732-.737-2.852-1.706-2.852-2.474 0-.768 1.12-1.742 2.852-2.476.42-.18.88-.342 1.356-.494zm11.678 4.28c.265.657.49 1.312.676 1.948-.64.157-1.316.29-2.016.39.24-.375.48-.762.705-1.158.225-.39.435-.788.636-1.18zm-9.945.02c.2.392.41.783.64 1.175.23.39.465.772.705 1.143-.695-.102-1.365-.23-2.006-.386.18-.63.406-1.282.66-1.933zM17.92 16.32c.112.493.2.968.254 1.423.23 1.868-.054 3.32-.714 3.708-.147.09-.338.128-.563.128-1.012 0-2.514-.807-4.11-2.28.686-.72 1.37-1.536 2.02-2.44 1.107-.118 2.154-.3 3.113-.54zm-11.83.01c.96.234 2.006.415 3.107.532.66.905 1.345 1.727 2.035 2.446-1.595 1.483-3.092 2.295-4.11 2.295-.22-.005-.406-.05-.553-.132-.666-.38-.955-1.834-.73-3.703.054-.46.142-.944.25-1.438zm4.56.64c.44.02.89.034 1.345.034.46 0 .915-.01 1.36-.034-.44.572-.895 1.095-1.345 1.565-.455-.47-.91-.993-1.36-1.565z"
     id="path4" />
  <path
     style="fill:#61dafb;stroke:#000000;stroke-width:0.123413;fill-opacity:1"
     d="M 6.7265306,22.640048 C 6.1968741,22.529741 5.7861695,22.289808 5.4826841,21.913393 5.276991,21.65827 4.997953,21.075075 4.9009561,20.69757 4.6202612,19.605125 4.6319863,18.248905 4.9358619,16.660045 c 0.047104,-0.24629 0.092096,-0.491968 0.099981,-0.545951 l 0.014338,-0.09815 -0.3863152,-0.126138 C 3.3794893,15.470439 2.0862697,14.814881 1.3393293,14.204534 -0.23087154,12.921477 -0.39997016,11.561769 0.84839383,10.256965 1.6337708,9.43608 2.9429383,8.6973466 4.6225081,8.1273179 4.8458429,8.0515203 5.0319033,7.9873094 5.0359758,7.9846266 5.0400483,7.9819425 5.0078766,7.8116522 4.9644829,7.6062008 4.7012457,6.3598785 4.6119892,4.9739138 4.734686,4.0379303 4.9276477,2.5659369 5.5452807,1.6720864 6.5469388,1.4152037 6.8062838,1.3486928 7.318865,1.342359 7.6571429,1.4014853 8.731808,1.589322 10.178815,2.3867672 11.459779,3.4971174 c 0.194773,0.1688303 0.397165,0.3420008 0.449762,0.3848233 l 0.09563,0.077859 0.152517,-0.147776 c 0.265092,-0.2568512 0.99288,-0.8470312 1.377638,-1.1171589 0.918952,-0.6451684 1.695701,-1.0348918 2.481002,-1.2448101 0.426603,-0.114035 1.003296,-0.1416194 1.349675,-0.064557 1.683763,0.3746018 2.323379,2.6146357 1.700228,5.9544581 -0.04595,0.2462899 -0.09115,0.492316 -0.100444,0.5467249 l -0.01689,0.098925 0.403105,0.1338629 c 1.181728,0.3924287 2.209168,0.8894472 3.015349,1.4586583 0.402826,0.2844186 0.997203,0.8715391 1.207528,1.1927851 0.663589,1.013549 0.499255,2.062099 -0.476157,3.038177 -0.746255,0.746765 -1.827003,1.377483 -3.294636,1.92273 -0.242449,0.09007 -0.525306,0.188305 -0.628572,0.218293 -0.117761,0.0342 -0.187755,0.07227 -0.187755,0.102118 0,0.02618 0.03611,0.227175 0.08025,0.446662 0.417724,2.077367 0.349288,3.769823 -0.197561,4.885812 -0.162128,0.330862 -0.21635,0.407103 -0.46574,0.654866 -0.451575,0.448629 -0.841062,0.601774 -1.523067,0.598865 -0.583199,-0.0025 -1.175292,-0.1577 -1.892967,-0.496226 -0.846095,-0.399102 -1.940751,-1.16031 -2.762061,-1.920698 -0.176873,-0.163754 -0.201038,-0.176546 -0.251938,-0.133371 -0.03097,0.02627 -0.197097,0.171465 -0.369183,0.322665 -0.797929,0.701087 -1.6758582,1.307984 -2.4299738,1.6798 -0.828865,0.408671 -1.4248784,0.573797 -2.0459455,0.566832 -0.1857505,-0.0021 -0.3671157,-0.0099 -0.4030341,-0.01739 z m 0.8379438,-1.069584 c 0.7303912,-0.139803 1.6082828,-0.58708 2.5579746,-1.303261 0.292703,-0.220734 1.020881,-0.83224 1.089429,-0.914876 0.03923,-0.04729 0.01433,-0.08578 -0.209242,-0.323413 C 10.52728,18.523665 9.7180953,17.545713 9.2734694,16.939104 9.2114429,16.85448 9.1819262,16.846659 8.6857143,16.783366 8.0001371,16.69592 7.3064839,16.578194 6.6578661,16.439204 6.368672,16.377234 6.1174707,16.326531 6.0996408,16.326531 c -0.033579,0 -0.1707112,0.674976 -0.2587249,1.273469 -0.068075,0.46291 -0.096611,1.761853 -0.047804,2.176027 0.094506,0.801981 0.3534877,1.428529 0.685615,1.658694 0.2513819,0.174207 0.63453,0.22211 1.0857475,0.135743 z m 9.8396076,-0.06906 c 0.39836,-0.192751 0.682481,-0.759694 0.807139,-1.610591 0.08789,-0.599953 0.04668,-1.791371 -0.09111,-2.633671 -0.103986,-0.635669 -0.184613,-0.967429 -0.230804,-0.949704 -0.223832,0.08589 -1.774921,0.371642 -2.573005,0.474013 -0.286237,0.03672 -0.530229,0.07795 -0.542204,0.09163 -0.01198,0.01368 -0.159349,0.208549 -0.327497,0.433038 -0.346497,0.462601 -0.964677,1.206513 -1.381715,1.662746 -0.154668,0.169204 -0.281215,0.318495 -0.281215,0.331759 0,0.03461 0.412871,0.397746 0.84323,0.74165 0.981988,0.784715 1.957474,1.313752 2.752296,1.492657 0.299437,0.0674 0.853773,0.04927 1.024883,-0.03353 z m -5.171303,-3.1753 c 0.330595,-0.350929 1.138657,-1.309072 1.138646,-1.350124 -2e-6,-0.007 -0.617146,-0.01272 -1.371431,-0.01272 -0.754286,0 -1.371427,0.0043 -1.371426,0.0094 1.6e-5,0.05018 1.33121,1.573239 1.37564,1.573913 0.01129,1.64e-4 0.114151,-0.09906 0.228571,-0.220522 z m 0.973869,-2.426287 c 0.386956,-0.01918 0.776837,-0.04507 0.866404,-0.05753 l 0.162847,-0.02266 0.30301,-0.455796 c 0.545754,-0.820936 1.120712,-1.819202 1.606189,-2.788728 0.144686,-0.288947 0.263065,-0.547767 0.263065,-0.575156 0,-0.02739 -0.104662,-0.258991 -0.232582,-0.51467 C 15.686994,10.50872 15.221527,9.7012963 14.605911,8.7624434 L 14.217299,8.1697891 13.769874,8.1420372 c -0.579399,-0.035937 -2.961191,-0.035881 -3.541304,9.8e-5 L 9.7795902,8.16997 9.4732846,8.6319311 C 9.1030916,9.1902309 8.7849349,9.7133652 8.417841,10.367347 c -0.3056386,0.544499 -0.8260043,1.584069 -0.8260043,1.650165 0,0.06689 0.5897493,1.224162 0.9030495,1.772067 0.3311504,0.579123 0.6700885,1.127033 1.0273479,1.660757 l 0.2549953,0.380948 0.205263,0.02145 c 0.7221996,0.07547 2.2124396,0.09724 3.2241556,0.04708 z M 8.3634762,15.623902 C 8.3530149,15.596639 8.2065904,15.350517 8.0380888,15.076963 7.6598534,14.462916 7.3987654,14.011371 7.2336669,13.685736 7.0218994,13.268052 7.0296238,13.270832 6.9129051,13.570256 6.7495096,13.98942 6.3397499,15.248593 6.360114,15.268957 c 0.030024,0.03003 0.8347307,0.202566 1.4241838,0.305367 0.6547366,0.114186 0.6022469,0.109693 0.5791784,0.04958 z m 7.9317808,-0.06574 c 0.541366,-0.09139 1.313293,-0.25787 1.34564,-0.290218 0.01135,-0.01135 -0.02747,-0.178225 -0.08627,-0.370825 -0.106076,-0.347435 -0.509486,-1.483921 -0.5577,-1.571151 -0.01714,-0.03101 -0.08517,0.06761 -0.21398,0.310204 -0.26842,0.505508 -0.674525,1.214379 -0.917301,1.601185 -0.268608,0.427962 -0.273111,0.440175 -0.154804,0.419787 0.05128,-0.0088 0.31427,-0.05338 0.584416,-0.09898 z M 5.3564921,14.881633 C 5.434546,14.520006 6.0479778,12.834615 6.3303853,12.205882 L 6.4139105,12.019927 6.2192506,11.559126 C 5.9564516,10.937023 5.6379481,10.078381 5.4531713,9.4938776 5.3694302,9.2289796 5.2963729,9.0122449 5.2908216,9.0122449 c -0.025313,0 -0.8071184,0.2761032 -1.0745016,0.3794723 -0.4791478,0.1852366 -1.380115,0.6419168 -1.7510139,0.8875498 -0.6490522,0.429844 -1.0867281,0.866026 -1.2843015,1.279917 -0.083821,0.175594 -0.1013444,0.252324 -0.101478,0.444345 -1.404e-4,0.204021 0.015194,0.263169 0.1267622,0.488912 0.332219,0.6722 1.4547816,1.479272 2.8621905,2.057786 0.3863227,0.158797 1.16008,0.4339 1.2268853,0.436208 0.021022,7.25e-4 0.04853,-0.04644 0.061127,-0.104802 z m 13.7986669,-0.0434 c 1.611192,-0.551701 2.870636,-1.299395 3.446467,-2.046065 0.343465,-0.445365 0.411884,-0.83751 0.215562,-1.235509 -0.366411,-0.742819 -1.461628,-1.529532 -2.966902,-2.1311739 -0.52821,-0.21112 -1.153242,-0.429422 -1.169462,-0.4084529 -0.0049,0.00635 -0.08607,0.2539922 -0.180355,0.5503187 -0.201165,0.6322431 -0.518255,1.4915011 -0.750718,2.0343181 l -0.165023,0.385337 0.174897,0.415415 c 0.251721,0.597886 0.542143,1.37937 0.736295,1.981256 0.09269,0.287347 0.174688,0.540817 0.182217,0.563266 0.0075,0.02245 0.01969,0.04082 0.02702,0.04082 0.0073,0 0.209831,-0.06729 0.450005,-0.149526 z M 7.3311203,10.155102 C 7.4795161,9.8767347 7.7752111,9.3592797 7.9882204,9.005202 8.2012297,8.6511242 8.3755102,8.3556085 8.3755102,8.3484999 c 0,-0.028559 -1.1879249,0.1832114 -1.7387755,0.3099706 -0.2017943,0.046436 -0.2857143,0.080025 -0.2857143,0.1143586 0,0.1570197 0.6459357,1.9592039 0.6862972,1.9147939 0.013196,-0.01452 0.1454073,-0.254154 0.2938027,-0.532521 z m 9.7629047,0.253061 C 17.204049,10.122687 17.59413,8.957009 17.62806,8.8123076 17.647793,8.7281525 17.642995,8.7254553 17.353538,8.6579487 16.698964,8.5052911 15.62449,8.3203948 15.62449,8.3604131 c 0,0.013661 0.144767,0.2577485 0.321706,0.5424166 0.316542,0.5092709 0.775738,1.3154163 0.922567,1.6196193 0.04117,0.08531 0.08534,0.155102 0.09815,0.155102 0.01281,0 0.07001,-0.121224 0.127111,-0.269388 z M 6.6938776,7.5626691 C 7.2983546,7.4304558 8.0234547,7.3076281 8.7123784,7.2207464 8.9784725,7.1871889 9.2080555,7.146752 9.2225633,7.1308869 9.237071,7.1150214 9.39267,6.9110204 9.5683386,6.677551 9.9339693,6.1916163 10.526643,5.4790433 10.935882,5.0333496 11.090127,4.8653652 11.216327,4.7165541 11.216327,4.702658 c 0,-0.046005 -0.638841,-0.5929619 -1.095173,-0.9376562 C 8.751358,2.7303148 7.4751964,2.2470328 6.719166,2.4766699 6.5286318,2.534543 6.4664722,2.5730221 6.3298573,2.7176675 5.6783171,3.4075053 5.5501215,5.2000199 5.9969763,7.3722247 c 0.056615,0.2752094 0.078487,0.3327255 0.1217339,0.3201031 0.028995,-0.00846 0.2878204,-0.066809 0.5751674,-0.1296587 z M 18.01864,7.2408163 C 18.169436,6.4424575 18.208115,6.0815798 18.226817,5.2985055 18.24664,4.4685249 18.21741,4.1093899 18.088655,3.600952 17.942431,3.0235317 17.681688,2.6243406 17.362082,2.4885839 17.037047,2.3505212 16.579486,2.3670332 16.032653,2.5365593 15.70583,2.637879 15.015416,2.9725832 14.628571,3.2172401 c -0.502294,0.317673 -1.426313,1.0384706 -1.840989,1.4360977 -0.03795,0.036385 0.01078,0.1043086 0.308223,0.429634 0.452553,0.4949828 0.94592,1.0878027 1.361609,1.6360849 0.199492,0.2631249 0.355352,0.438477 0.39679,0.4464146 0.03754,0.00719 0.318041,0.04481 0.623347,0.0836 0.61031,0.077542 1.581134,0.2502687 2.089796,0.3718116 0.179592,0.042913 0.334827,0.079647 0.344967,0.081631 0.01014,0.00199 0.05799,-0.2057799 0.106326,-0.4616976 z M 13.328985,6.9877551 C 13.182752,6.7936483 12.480927,5.9721721 12.260593,5.7372186 l -0.269396,-0.2872708 -0.08095,0.075026 C 11.725598,5.6961182 10.62855,6.9814276 10.628578,7.02659 c 3e-6,0.00558 0.615898,0.010145 1.368656,0.010145 1.211209,0 1.364405,-0.00563 1.331751,-0.04898 z"
     id="path837" />
  <path
     style="fill:#61dafb;fill-opacity:1;stroke:#000000;stroke-width:0.123413"
     d="m 11.690963,14.20163 c -1.054032,-0.160207 -1.8510745,-1.034739 -1.9023943,-2.087344 -0.020026,-0.410756 0.045697,-0.715367 0.2386933,-1.106273 0.253822,-0.51411 0.732582,-0.929004 1.287024,-1.115338 0.297474,-0.099974 0.824899,-0.1231987 1.150865,-0.050678 0.808795,0.17994 1.461964,0.809893 1.6789,1.619227 0.08984,0.335186 0.07571,0.861872 -0.03199,1.191837 -0.294426,0.902085 -1.052141,1.494473 -1.997778,1.561878 -0.125715,0.009 -0.31621,0.003 -0.423323,-0.01331 z"
     id="path839" />
</svg>
